<svg width="18" height="18" viewBox="0 0 18 18" fill="none" xmlns="http://www.w3.org/2000/svg">
<rect width="18" height="18" rx="9" fill="#071215"/>
<path d="M8.05664 12.0244H10.0938V14H8.05664V12.0244ZM5.56152 7.10254C5.61621 5.80371 6.06966 4.88314 6.92188 4.34082C7.45964 3.99447 8.12044 3.82129 8.9043 3.82129C9.93424 3.82129 10.7887 4.06738 11.4678 4.55957C12.1514 5.05176 12.4932 5.78092 12.4932 6.74707C12.4932 7.33952 12.3451 7.83854 12.0488 8.24414C11.8757 8.49023 11.543 8.80469 11.0508 9.1875L10.5654 9.56348C10.3011 9.76855 10.1257 10.0078 10.0391 10.2812C9.98438 10.4544 9.95475 10.7233 9.9502 11.0879H8.10449C8.13184 10.3177 8.20475 9.78678 8.32324 9.49512C8.44173 9.19889 8.74707 8.85938 9.23926 8.47656L9.73828 8.08691C9.90234 7.96387 10.0345 7.82943 10.1348 7.68359C10.3171 7.43294 10.4082 7.15723 10.4082 6.85645C10.4082 6.51009 10.3057 6.19564 10.1006 5.91309C9.90007 5.62598 9.53092 5.48242 8.99316 5.48242C8.46452 5.48242 8.08854 5.65788 7.86523 6.00879C7.64648 6.3597 7.53711 6.72428 7.53711 7.10254H5.56152Z" fill="white"/>
</svg>
